# xmcd
#
# Track frame offsets:
#	150
#	57914
#	72175
#	126387
#	161961
#	241500
#
# Disc length: 4160 seconds
#
# Revision: 1
# Processed by: cddbd v1.5.2PL0 Copyright (c) Steve Scherf et al.
# Submitted via: audiograbber 1.83.01
#
DISCID=4f103e06
DTITLE=Grateful Dead - 73-10-30 Kiel Auditorium, St Louis MO
DYEAR=1900
DGENRE=
TTITLE0=Dark Star
TTITLE1=Mind Left Body Jam
TTITLE2=Dark Star
TTITLE3=Stella Blue
TTITLE4=Eyes Of The World
TTITLE5=Weather Report Suite
EXTD=
EXTT0=
EXTT1=
EXTT2=
EXTT3=
EXTT4=
EXTT5=
PLAYORDER=
